<svg xmlns="http://www.w3.org/2000/svg" width="117" height="104" viewBox="0 0 117 104">
    <g fill="#dc7867">
        <path d="M50.884 40.305c-.595-.827-5.85-7.11-6.169-7.534-.319-.425-.83-.637-1.404-.255-.595.403-1.063.87-1.659 1.528-.362.403-.49.913.213 1.656.34.36 6.169 6.367 6.445 6.622 1.68 1.591 3.702-.425 2.574-2.017M39.567 34.66c-.468.36-.914.19-1.361-.234-.68-.658-5.637-6.134-9.381-10.57-5.17-6.134-12.04-14.878-12.147-22.54 5.871 4.308 14.89 15.303 19.38 20.864 3.105 3.841 6.21 7.386 6.785 8.15.575.764-.106 1.273-.532 1.719-.425.446-2.084 2.122-2.744 2.61M44.417 46.248c-.34-.212-6.977-4.69-7.317-4.945-.51-.361-.724-.785-.447-1.422.234-.51 1.064-1.783 1.361-2.08.277-.255.617-.446 1.128-.106.276.19 7.062 5.582 7.573 5.985 1.66 1.337.042 4.096-2.298 2.568M36.993 37.567c.383-.594.894-1.082-.106-1.974-.979-.891-11.21-8.999-16.061-13.01-8.488-7.047-13.997-11.228-13.997-11.228 0 9.466 13.7 19.781 20.102 24.514 4.425 3.29 6.574 4.542 6.829 4.67.638.318.936.042 1.149-.149.808-.806 2.084-2.823 2.084-2.823M42.397 51.066c-.532-.17-7.701-2.865-8.68-3.353-.936-.467-.83-.913-.638-1.529.17-.573.362-1.146.702-1.846.234-.467.596-.87 1.617-.403.723.318 8.147 4.011 8.53 4.202 1.85.892 1.085 3.778-1.531 2.93M33.058 43.68c-.277.7-1.106 2.993-1.362 3.544-.468.977-1.085.595-1.531.467-.702-.212-5.68-2.313-10.084-4.542C6.616 36.4 3.148 30.48 2.32 25.045c16.571 10.442 23.91 14.072 30.27 17.32.745.381.745.615.469 1.315M31.016 51.151c-.022.637-.192 2.653-.362 3.375-.191.806-.766.679-1.17.679-.425 0-3.17-.276-7.85-1.443-6.339-1.592-16.763-5.2-18.443-11.631 14.55 4.945 19.124 5.942 27.101 7.831.51.128.745.574.724 1.189M41.886 55.608c-.468-.042-7.552-.615-9.254-.891-.872-.149-1.02-.595-1.02-1.104 0-.467.02-1.167.19-1.995.235-1.167 1.107-.891 1.66-.807.574.085 8.126 1.592 8.87 1.72 2.107.318 1.766 3.247-.446 3.077M42.63 59.917c-3.041.51-7.977.955-8.636 1.019-.66.063-1.277.127-1.468-.658-.149-.616-.277-1.38-.34-1.996-.085-.827.404-.955.957-.976.574-.021 8.658-.233 9.509-.255 1.85-.02 2.34 2.484-.021 2.866M31.356 58.134c.17.722.404 1.995.49 3.014.042.615-.511.87-.852.87-7.87.382-19.166-.318-23.102-6.007 10.254 1.062 18.125 1.125 22.337 1.168.893 0 1 .467 1.127.955M44.694 63.482c-1.213.51-7.105 2.399-8.211 2.675-1 .233-1.49.34-1.808-.17-.34-.573-.532-1.083-.66-1.613-.149-.616.149-.785.745-.934.872-.191 8.53-2.144 9.062-2.313 1.787-.51 2.319 1.761.872 2.355M33.25 64.544c-.256-.488-.469-.743-1.447-.573-2.574.488-8.34 1.57-16.933 2.292 2.148 2.462 8.253 4.266 18.613 1.528.532-.149.809-.424.532-1.38-.17-.53-.51-1.38-.766-1.867M46.396 66.39c-.362.255-5.51 3.439-7.595 4.394-.595.254-.83.127-1.084-.17-.192-.234-.426-.53-.617-.87-.234-.446-.34-.786.17-1.02 1.914-.89 6.254-3.162 7.892-4.138 1.617-.997 2.531.828 1.234 1.804M36.376 69.744c-.34-.425-.51-.467-1.233-.213-.724.255-4.723 1.996-11.573 3.8 3.149 1.146 7.935 1.464 13.466-1.189.319-.149.468-.637.234-1.061-.234-.467-.596-.934-.894-1.337M65.414 40.305c.595-.827 5.85-7.11 6.169-7.534.319-.425.83-.637 1.404-.255.595.403 1.063.87 1.659 1.528.362.403.49.913-.213 1.656-.34.36-6.169 6.367-6.445 6.622-1.702 1.591-3.702-.425-2.574-2.017M76.71 34.66c.467.36.914.19 1.36-.234.682-.658 5.638-6.134 9.382-10.57 5.17-6.134 12.04-14.878 12.147-22.54-5.871 4.308-14.891 15.303-19.38 20.864-3.105 3.841-6.211 7.386-6.786 8.15-.574.764.107 1.273.532 1.719.447.446 2.106 2.122 2.744 2.61M71.88 46.248c.34-.212 6.957-4.69 7.318-4.945.51-.361.724-.785.447-1.422-.234-.51-1.064-1.783-1.361-2.08-.277-.255-.617-.446-1.107-.106-.276.19-7.062 5.582-7.573 5.985-1.68 1.337-.063 4.096 2.277 2.568M79.305 37.567c-.383-.594-.894-1.082.106-1.974 1-.891 11.21-8.999 16.061-13.01 8.488-7.047 13.997-11.228 13.997-11.228 0 9.466-13.7 19.781-20.102 24.514-4.425 3.29-6.574 4.542-6.829 4.67-.638.318-.936.042-1.149-.149-.808-.806-2.084-2.823-2.084-2.823M73.901 51.066c.532-.17 7.701-2.865 8.68-3.353.936-.467.83-.913.638-1.529-.17-.573-.362-1.146-.702-1.846-.234-.467-.596-.87-1.617-.403-.723.318-8.147 4.011-8.53 4.202-1.85.892-1.106 3.778 1.531 2.93M83.24 43.68c.277.7 1.106 2.993 1.362 3.544.446.977 1.085.595 1.531.467.702-.212 5.68-2.313 10.084-4.542 13.465-6.749 16.933-12.67 17.762-18.104-16.592 10.442-23.91 14.072-30.27 17.32-.745.381-.745.615-.469 1.315M85.282 51.151c.022.637.192 2.653.362 3.375.191.806.766.679 1.17.679.425 0 3.17-.276 7.85-1.443 6.339-1.592 16.763-5.2 18.443-11.631-14.55 4.945-19.124 5.942-27.101 7.831-.532.128-.745.574-.724 1.189M74.39 55.608c.469-.042 7.553-.615 9.254-.891.873-.149 1.021-.595 1.021-1.104 0-.467-.02-1.167-.191-1.995-.234-1.167-1.085-.891-1.66-.807-.574.085-8.125 1.592-8.87 1.72-2.085.318-1.744 3.247.447 3.077M73.667 59.917c3.042.51 7.978.955 8.637 1.019.66.063 1.277.127 1.468-.658.149-.616.277-1.38.34-1.996.085-.827-.404-.955-.957-.976-.574-.021-8.658-.233-9.509-.255-1.85-.02-2.361 2.484.021 2.866M84.942 58.134c-.17.722-.404 1.995-.49 3.014-.042.615.511.87.852.87 7.87.382 19.166-.318 23.102-6.007-10.254 1.062-18.125 1.125-22.337 1.168-.893 0-1 .467-1.127.955M71.604 63.482c1.213.51 7.105 2.399 8.211 2.675 1 .233 1.49.34 1.787-.17.34-.573.532-1.083.66-1.613.149-.616-.15-.785-.745-.934-.872-.191-8.53-2.144-9.062-2.313-1.787-.51-2.298 1.761-.851 2.355M83.049 64.544c.255-.488.468-.743 1.446-.573 2.574.488 8.318 1.57 16.933 2.292-2.148 2.462-8.253 4.266-18.613 1.528-.532-.149-.809-.424-.532-1.38.17-.53.51-1.38.766-1.867M69.902 66.39c.362.255 5.51 3.439 7.595 4.394.574.254.83.127 1.084-.17.192-.234.447-.53.617-.87.234-.446.34-.786-.17-1.02-1.914-.89-6.254-3.162-7.87-4.138-1.639-.997-2.553.828-1.256 1.804M79.922 69.744c.34-.425.51-.467 1.233-.213.724.255 4.723 1.996 11.573 3.8-3.149 1.146-7.935 1.464-13.466-1.189-.319-.149-.468-.637-.234-1.061.234-.467.575-.934.894-1.337M98.237 95.15h5.638v-1.02h-6.659v9.637h6.659v-.998h-5.638v-3.332h3.532c.914 0 1.127-.955 1.127-.955h-4.659v-3.333zM115.405 95.15v-1.02h-6.659v9.637h1.021v-4.351h3.468c.914 0 1.127-.956 1.127-.956h-4.595v-3.31h5.638zM5.765 103.851c-3.404 0-4.957-2.44-4.957-4.86-.02-1.4.468-2.695 1.383-3.608.894-.892 2.127-1.38 3.574-1.38 1.34 0 2.574.51 3.51 1.444l.106.127s-.68.467-1.574-.064c-.617-.36-1.319-.552-2.042-.552-1.17 0-2.17.361-2.85 1.083-.724.721-1.107 1.761-1.107 2.929.021 1.804 1.064 3.926 3.957 3.926 1.042 0 2.085-.424 2.808-1.146l.106-.106.702.658-.106.106c-.936.934-2.191 1.443-3.51 1.443M18.252 103.915c-3.34 0-4.871-2.59-4.871-4.988 0-2.462 1.51-4.945 4.871-4.945 1.404 0 2.617.467 3.489 1.337.893.913 1.404 2.208 1.382 3.65 0 2.378-1.531 4.946-4.871 4.946m-3.85-4.988c.02 1.932 1.233 4.012 3.85 4.012 2.66 0 3.872-2.08 3.872-4.012 0-1.974-1.192-3.99-3.872-3.99-1.127 0-2.085.361-2.744 1.04-.723.722-1.106 1.783-1.106 2.95M32.1 103.915c-3.34 0-4.87-2.59-4.87-4.988 0-2.462 1.51-4.945 4.87-4.945 1.405 0 2.617.467 3.49 1.337.893.913 1.403 2.208 1.382 3.65-.021 2.378-1.553 4.946-4.871 4.946m-3.85-4.988c.02 1.932 1.233 4.012 3.85 4.012 2.659 0 3.871-2.08 3.871-4.012 0-1.974-1.191-3.99-3.871-3.99-1.128 0-2.085.361-2.745 1.04-.723.722-1.106 1.783-1.106 2.95M91.111 94.131H92.132V103.767H91.111zM84.985 98.567L84.985 94.131 86.006 94.131 86.006 103.745 84.985 103.745 84.985 99.522zM79.347 98.46v-4.33h-1.02v9.637h1.02v-4.33h3.532c.914 0 1.127-.955 1.127-.955h-4.659v-.022zM58.479 98.715v-2.292h-.617v2.292h-2.34v.637h2.34v2.356h.617v-2.356h1.595c.617 0 .745-.637.745-.637h-2.34zM66.116 94.13v.956h3.382v8.66h1.021v-8.66h2.298c.893 0 1.106-.955 1.106-.955h-7.807zM44.269 98.949s3.042-2.823 3.552-3.311c.894-.85.298-1.656.298-1.656l-5.233 4.945 5.127 4.84h1.361l-5.105-4.818zM41.375 94.131H42.375V103.746H41.375z"/>
    </g>
</svg>
